<?xml version="1.0" encoding="utf-8"?>
<svg version="1.0" width="87.000000pt" height="70.000000pt" viewBox="0 0 87.000000 70.000000" preserveAspectRatio="xMidYMid meet" xmlns="http://www.w3.org/2000/svg">
  <g transform="translate(0.000000,70.000000) scale(0.100000,-0.100000)" fill="#000000" stroke="none">
    <path d="M298 595 c-7 -8 -11 -399 -4 -406 2 -2 59 -2 126 1 118 5 122 6 146 33 17 20 24 40 24 70 0 47 -26 95 -42 79 -7 -7 -5 -18 6 -33 24 -35 20 -67 -13 -100 -28 -28 -33 -29 -125 -29 l-96 0 0 180 0 180 104 0 c114 0 117 -1 140 -66 11 -31 15 -35 21 -21 9 23 0 59 -24 88 -18 22 -27 24 -138 27 -65 2 -121 0 -125 -3z" style="fill: rgb(201, 176, 145);"/>
    <path d="M150 319 c0 -156 3 -210 12 -207 8 3 11 54 9 186 -2 126 1 182 8 182 6 0 29 -11 51 -25 31 -19 40 -22 40 -10 0 12 -99 85 -115 85 -3 0 -5 -95 -5 -211z" style=""/>
    <path d="M580 450 c-74 -44 -140 -80 -146 -80 -6 0 -28 11 -48 25 -43 29 -46 30 -46 10 0 -8 21 -28 46 -44 l47 -29 118 69 c65 38 124 71 131 74 11 4 12 -30 10 -180 -3 -162 -1 -185 12 -185 14 0 16 26 16 210 0 116 -1 210 -2 210 -2 0 -64 -36 -138 -80z" style=""/>
  </g>
</svg>